<mxfile host="Electron" modified="2024-03-06T07:10:43.887Z" agent="Mozilla/5.0 (Windows NT 10.0; Win64; x64) AppleWebKit/537.36 (KHTML, like Gecko) draw.io/23.0.2 Chrome/120.0.6099.109 Electron/28.1.0 Safari/537.36" etag="IgQgbsZUGx8wk5lQpqTg" version="23.0.2" type="device">
  <diagram id="C5RBs43oDa-KdzZeNtuy" name="Page-1">
    <mxGraphModel dx="1094" dy="974" grid="1" gridSize="10" guides="1" tooltips="1" connect="1" arrows="1" fold="1" page="1" pageScale="1" pageWidth="827" pageHeight="1169" math="0" shadow="0">
      <root>
        <mxCell id="WIyWlLk6GJQsqaUBKTNV-0" />
        <mxCell id="WIyWlLk6GJQsqaUBKTNV-1" parent="WIyWlLk6GJQsqaUBKTNV-0" />
        <mxCell id="WIyWlLk6GJQsqaUBKTNV-2" value="" style="rounded=0;html=1;jettySize=auto;orthogonalLoop=1;fontSize=11;endArrow=block;endFill=0;endSize=8;strokeWidth=1;shadow=0;labelBackgroundColor=none;edgeStyle=orthogonalEdgeStyle;" parent="WIyWlLk6GJQsqaUBKTNV-1" source="WIyWlLk6GJQsqaUBKTNV-3" target="WIyWlLk6GJQsqaUBKTNV-6" edge="1">
          <mxGeometry relative="1" as="geometry" />
        </mxCell>
        <mxCell id="F8fiGYvBZijiuDRVTaX--12" value="" style="edgeStyle=orthogonalEdgeStyle;rounded=0;orthogonalLoop=1;jettySize=auto;html=1;" edge="1" parent="WIyWlLk6GJQsqaUBKTNV-1" source="WIyWlLk6GJQsqaUBKTNV-3" target="F8fiGYvBZijiuDRVTaX--11">
          <mxGeometry relative="1" as="geometry" />
        </mxCell>
        <mxCell id="WIyWlLk6GJQsqaUBKTNV-3" value="init()" style="rounded=1;whiteSpace=wrap;html=1;fontSize=12;glass=0;strokeWidth=1;shadow=0;" parent="WIyWlLk6GJQsqaUBKTNV-1" vertex="1">
          <mxGeometry x="80" y="20" width="120" height="40" as="geometry" />
        </mxCell>
        <mxCell id="WIyWlLk6GJQsqaUBKTNV-5" value="No" style="edgeStyle=orthogonalEdgeStyle;rounded=0;html=1;jettySize=auto;orthogonalLoop=1;fontSize=11;endArrow=block;endFill=0;endSize=8;strokeWidth=1;shadow=0;labelBackgroundColor=none;entryX=0;entryY=0.5;entryDx=0;entryDy=0;" parent="WIyWlLk6GJQsqaUBKTNV-1" source="WIyWlLk6GJQsqaUBKTNV-6" target="WIyWlLk6GJQsqaUBKTNV-7" edge="1">
          <mxGeometry y="10" relative="1" as="geometry">
            <mxPoint as="offset" />
          </mxGeometry>
        </mxCell>
        <mxCell id="F8fiGYvBZijiuDRVTaX--5" value="" style="edgeStyle=orthogonalEdgeStyle;rounded=0;orthogonalLoop=1;jettySize=auto;html=1;" edge="1" parent="WIyWlLk6GJQsqaUBKTNV-1" source="WIyWlLk6GJQsqaUBKTNV-6" target="F8fiGYvBZijiuDRVTaX--4">
          <mxGeometry relative="1" as="geometry" />
        </mxCell>
        <mxCell id="WIyWlLk6GJQsqaUBKTNV-6" value="Player Select Screen" style="rhombus;whiteSpace=wrap;html=1;shadow=0;fontFamily=Helvetica;fontSize=12;align=center;strokeWidth=1;spacing=6;spacingTop=-4;" parent="WIyWlLk6GJQsqaUBKTNV-1" vertex="1">
          <mxGeometry x="90" y="90" width="100" height="80" as="geometry" />
        </mxCell>
        <mxCell id="F8fiGYvBZijiuDRVTaX--1" value="" style="edgeStyle=orthogonalEdgeStyle;rounded=0;orthogonalLoop=1;jettySize=auto;html=1;" edge="1" parent="WIyWlLk6GJQsqaUBKTNV-1" source="WIyWlLk6GJQsqaUBKTNV-7" target="F8fiGYvBZijiuDRVTaX--0">
          <mxGeometry relative="1" as="geometry" />
        </mxCell>
        <mxCell id="WIyWlLk6GJQsqaUBKTNV-7" value="Choose Character" style="rounded=1;whiteSpace=wrap;html=1;fontSize=12;glass=0;strokeWidth=1;shadow=0;" parent="WIyWlLk6GJQsqaUBKTNV-1" vertex="1">
          <mxGeometry x="290" y="110" width="120" height="40" as="geometry" />
        </mxCell>
        <mxCell id="F8fiGYvBZijiuDRVTaX--3" value="" style="edgeStyle=orthogonalEdgeStyle;rounded=0;orthogonalLoop=1;jettySize=auto;html=1;" edge="1" parent="WIyWlLk6GJQsqaUBKTNV-1" source="F8fiGYvBZijiuDRVTaX--0" target="F8fiGYvBZijiuDRVTaX--2">
          <mxGeometry relative="1" as="geometry" />
        </mxCell>
        <mxCell id="F8fiGYvBZijiuDRVTaX--37" style="edgeStyle=orthogonalEdgeStyle;rounded=0;orthogonalLoop=1;jettySize=auto;html=1;entryX=0;entryY=0.5;entryDx=0;entryDy=0;" edge="1" parent="WIyWlLk6GJQsqaUBKTNV-1" source="F8fiGYvBZijiuDRVTaX--0" target="F8fiGYvBZijiuDRVTaX--13">
          <mxGeometry relative="1" as="geometry" />
        </mxCell>
        <mxCell id="F8fiGYvBZijiuDRVTaX--0" value="Choose random player to go first" style="ellipse;whiteSpace=wrap;html=1;rounded=1;glass=0;strokeWidth=1;shadow=0;" vertex="1" parent="WIyWlLk6GJQsqaUBKTNV-1">
          <mxGeometry x="295" y="170" width="115" height="50" as="geometry" />
        </mxCell>
        <mxCell id="F8fiGYvBZijiuDRVTaX--2" value="Set player 1 &amp;amp; player 2 variables to character choice" style="shape=document;whiteSpace=wrap;html=1;boundedLbl=1;rounded=1;glass=0;strokeWidth=1;shadow=0;" vertex="1" parent="WIyWlLk6GJQsqaUBKTNV-1">
          <mxGeometry x="290" y="240" width="120" height="80" as="geometry" />
        </mxCell>
        <mxCell id="F8fiGYvBZijiuDRVTaX--10" value="" style="edgeStyle=orthogonalEdgeStyle;rounded=0;orthogonalLoop=1;jettySize=auto;html=1;" edge="1" parent="WIyWlLk6GJQsqaUBKTNV-1" source="F8fiGYvBZijiuDRVTaX--4" target="F8fiGYvBZijiuDRVTaX--9">
          <mxGeometry relative="1" as="geometry" />
        </mxCell>
        <mxCell id="F8fiGYvBZijiuDRVTaX--4" value="Clear player select screen and load board&lt;br&gt;" style="rhombus;whiteSpace=wrap;html=1;shadow=0;strokeWidth=1;spacing=6;spacingTop=-4;rounded=0;" vertex="1" parent="WIyWlLk6GJQsqaUBKTNV-1">
          <mxGeometry x="55" y="200" width="170" height="110" as="geometry" />
        </mxCell>
        <mxCell id="F8fiGYvBZijiuDRVTaX--16" value="" style="edgeStyle=orthogonalEdgeStyle;rounded=0;orthogonalLoop=1;jettySize=auto;html=1;" edge="1" parent="WIyWlLk6GJQsqaUBKTNV-1" source="F8fiGYvBZijiuDRVTaX--9" target="F8fiGYvBZijiuDRVTaX--15">
          <mxGeometry relative="1" as="geometry" />
        </mxCell>
        <mxCell id="F8fiGYvBZijiuDRVTaX--9" value="Set player&#39;s turn (based off who chose character first)&amp;nbsp;" style="rounded=0;whiteSpace=wrap;html=1;shadow=0;strokeWidth=1;spacing=6;spacingTop=-4;" vertex="1" parent="WIyWlLk6GJQsqaUBKTNV-1">
          <mxGeometry x="80" y="350" width="120" height="70" as="geometry" />
        </mxCell>
        <mxCell id="F8fiGYvBZijiuDRVTaX--14" value="" style="edgeStyle=orthogonalEdgeStyle;rounded=0;orthogonalLoop=1;jettySize=auto;html=1;" edge="1" parent="WIyWlLk6GJQsqaUBKTNV-1" source="F8fiGYvBZijiuDRVTaX--11" target="F8fiGYvBZijiuDRVTaX--13">
          <mxGeometry relative="1" as="geometry" />
        </mxCell>
        <mxCell id="F8fiGYvBZijiuDRVTaX--38" value="Display Game Board&lt;br&gt;" style="edgeLabel;html=1;align=center;verticalAlign=middle;resizable=0;points=[];" vertex="1" connectable="0" parent="F8fiGYvBZijiuDRVTaX--14">
          <mxGeometry x="-0.0105" y="-2" relative="1" as="geometry">
            <mxPoint as="offset" />
          </mxGeometry>
        </mxCell>
        <mxCell id="F8fiGYvBZijiuDRVTaX--11" value="Game Set Up" style="whiteSpace=wrap;html=1;rounded=1;glass=0;strokeWidth=1;shadow=0;" vertex="1" parent="WIyWlLk6GJQsqaUBKTNV-1">
          <mxGeometry x="540" y="10" width="120" height="60" as="geometry" />
        </mxCell>
        <mxCell id="F8fiGYvBZijiuDRVTaX--40" value="" style="edgeStyle=orthogonalEdgeStyle;rounded=0;orthogonalLoop=1;jettySize=auto;html=1;" edge="1" parent="WIyWlLk6GJQsqaUBKTNV-1" source="F8fiGYvBZijiuDRVTaX--13" target="F8fiGYvBZijiuDRVTaX--39">
          <mxGeometry relative="1" as="geometry" />
        </mxCell>
        <mxCell id="F8fiGYvBZijiuDRVTaX--13" value="Set current player to player&amp;nbsp;" style="rounded=1;whiteSpace=wrap;html=1;glass=0;strokeWidth=1;shadow=0;" vertex="1" parent="WIyWlLk6GJQsqaUBKTNV-1">
          <mxGeometry x="540" y="165" width="120" height="60" as="geometry" />
        </mxCell>
        <mxCell id="F8fiGYvBZijiuDRVTaX--18" value="" style="edgeStyle=orthogonalEdgeStyle;rounded=0;orthogonalLoop=1;jettySize=auto;html=1;" edge="1" parent="WIyWlLk6GJQsqaUBKTNV-1" source="F8fiGYvBZijiuDRVTaX--15" target="F8fiGYvBZijiuDRVTaX--17">
          <mxGeometry relative="1" as="geometry" />
        </mxCell>
        <mxCell id="F8fiGYvBZijiuDRVTaX--24" value="" style="edgeStyle=orthogonalEdgeStyle;rounded=0;orthogonalLoop=1;jettySize=auto;html=1;" edge="1" parent="WIyWlLk6GJQsqaUBKTNV-1" source="F8fiGYvBZijiuDRVTaX--15" target="F8fiGYvBZijiuDRVTaX--23">
          <mxGeometry relative="1" as="geometry" />
        </mxCell>
        <mxCell id="F8fiGYvBZijiuDRVTaX--15" value="Play game" style="rounded=0;whiteSpace=wrap;html=1;shadow=0;strokeWidth=1;spacing=6;spacingTop=-4;" vertex="1" parent="WIyWlLk6GJQsqaUBKTNV-1">
          <mxGeometry x="60" y="450" width="160" height="85" as="geometry" />
        </mxCell>
        <mxCell id="F8fiGYvBZijiuDRVTaX--22" value="" style="edgeStyle=orthogonalEdgeStyle;rounded=0;orthogonalLoop=1;jettySize=auto;html=1;" edge="1" parent="WIyWlLk6GJQsqaUBKTNV-1" source="F8fiGYvBZijiuDRVTaX--17" target="F8fiGYvBZijiuDRVTaX--21">
          <mxGeometry relative="1" as="geometry" />
        </mxCell>
        <mxCell id="F8fiGYvBZijiuDRVTaX--17" value="Someone Wins" style="ellipse;whiteSpace=wrap;html=1;rounded=0;shadow=0;strokeWidth=1;spacing=6;spacingTop=-4;" vertex="1" parent="WIyWlLk6GJQsqaUBKTNV-1">
          <mxGeometry x="100" y="560" width="80" height="80" as="geometry" />
        </mxCell>
        <mxCell id="F8fiGYvBZijiuDRVTaX--26" value="" style="edgeStyle=orthogonalEdgeStyle;rounded=0;orthogonalLoop=1;jettySize=auto;html=1;entryX=0;entryY=0.5;entryDx=0;entryDy=0;" edge="1" parent="WIyWlLk6GJQsqaUBKTNV-1" source="F8fiGYvBZijiuDRVTaX--21" target="F8fiGYvBZijiuDRVTaX--25">
          <mxGeometry relative="1" as="geometry">
            <mxPoint x="200" y="780" as="targetPoint" />
          </mxGeometry>
        </mxCell>
        <mxCell id="F8fiGYvBZijiuDRVTaX--21" value="Add win to player&#39;s score." style="rounded=0;whiteSpace=wrap;html=1;shadow=0;strokeWidth=1;spacing=6;spacingTop=-4;" vertex="1" parent="WIyWlLk6GJQsqaUBKTNV-1">
          <mxGeometry x="100" y="680" width="80" height="60" as="geometry" />
        </mxCell>
        <mxCell id="F8fiGYvBZijiuDRVTaX--41" style="edgeStyle=orthogonalEdgeStyle;rounded=0;orthogonalLoop=1;jettySize=auto;html=1;exitX=0.5;exitY=1;exitDx=0;exitDy=0;entryX=0.5;entryY=0;entryDx=0;entryDy=0;" edge="1" parent="WIyWlLk6GJQsqaUBKTNV-1" source="F8fiGYvBZijiuDRVTaX--23" target="F8fiGYvBZijiuDRVTaX--25">
          <mxGeometry relative="1" as="geometry">
            <mxPoint x="320" y="705" as="targetPoint" />
          </mxGeometry>
        </mxCell>
        <mxCell id="F8fiGYvBZijiuDRVTaX--23" value="No One Wins" style="ellipse;whiteSpace=wrap;html=1;rounded=0;shadow=0;strokeWidth=1;spacing=6;spacingTop=-4;" vertex="1" parent="WIyWlLk6GJQsqaUBKTNV-1">
          <mxGeometry x="280" y="560" width="80" height="80" as="geometry" />
        </mxCell>
        <mxCell id="F8fiGYvBZijiuDRVTaX--30" value="" style="edgeStyle=orthogonalEdgeStyle;rounded=0;orthogonalLoop=1;jettySize=auto;html=1;" edge="1" parent="WIyWlLk6GJQsqaUBKTNV-1" source="F8fiGYvBZijiuDRVTaX--25" target="F8fiGYvBZijiuDRVTaX--29">
          <mxGeometry relative="1" as="geometry" />
        </mxCell>
        <mxCell id="F8fiGYvBZijiuDRVTaX--32" value="" style="edgeStyle=orthogonalEdgeStyle;rounded=0;orthogonalLoop=1;jettySize=auto;html=1;exitX=0.5;exitY=1;exitDx=0;exitDy=0;" edge="1" parent="WIyWlLk6GJQsqaUBKTNV-1" source="F8fiGYvBZijiuDRVTaX--25" target="F8fiGYvBZijiuDRVTaX--31">
          <mxGeometry relative="1" as="geometry" />
        </mxCell>
        <mxCell id="F8fiGYvBZijiuDRVTaX--25" value="Ask to play again" style="rounded=0;whiteSpace=wrap;html=1;shadow=0;strokeWidth=1;spacing=6;spacingTop=-4;" vertex="1" parent="WIyWlLk6GJQsqaUBKTNV-1">
          <mxGeometry x="240" y="770" width="80" height="60" as="geometry" />
        </mxCell>
        <mxCell id="F8fiGYvBZijiuDRVTaX--34" value="" style="edgeStyle=orthogonalEdgeStyle;rounded=0;orthogonalLoop=1;jettySize=auto;html=1;" edge="1" parent="WIyWlLk6GJQsqaUBKTNV-1" source="F8fiGYvBZijiuDRVTaX--29" target="F8fiGYvBZijiuDRVTaX--33">
          <mxGeometry relative="1" as="geometry" />
        </mxCell>
        <mxCell id="F8fiGYvBZijiuDRVTaX--29" value="Yes" style="rhombus;whiteSpace=wrap;html=1;rounded=0;shadow=0;strokeWidth=1;spacing=6;spacingTop=-4;" vertex="1" parent="WIyWlLk6GJQsqaUBKTNV-1">
          <mxGeometry x="390" y="760" width="80" height="80" as="geometry" />
        </mxCell>
        <mxCell id="F8fiGYvBZijiuDRVTaX--36" value="" style="edgeStyle=orthogonalEdgeStyle;rounded=0;orthogonalLoop=1;jettySize=auto;html=1;" edge="1" parent="WIyWlLk6GJQsqaUBKTNV-1" source="F8fiGYvBZijiuDRVTaX--31" target="F8fiGYvBZijiuDRVTaX--35">
          <mxGeometry relative="1" as="geometry" />
        </mxCell>
        <mxCell id="F8fiGYvBZijiuDRVTaX--31" value="No" style="rhombus;whiteSpace=wrap;html=1;rounded=0;shadow=0;strokeWidth=1;spacing=6;spacingTop=-4;" vertex="1" parent="WIyWlLk6GJQsqaUBKTNV-1">
          <mxGeometry x="100" y="880" width="80" height="80" as="geometry" />
        </mxCell>
        <mxCell id="F8fiGYvBZijiuDRVTaX--33" value="Reset Game board only and start new game" style="rounded=0;whiteSpace=wrap;html=1;shadow=0;strokeWidth=1;spacing=6;spacingTop=-4;" vertex="1" parent="WIyWlLk6GJQsqaUBKTNV-1">
          <mxGeometry x="540" y="770" width="120" height="60" as="geometry" />
        </mxCell>
        <mxCell id="F8fiGYvBZijiuDRVTaX--35" value="End Game" style="rounded=0;whiteSpace=wrap;html=1;shadow=0;strokeWidth=1;spacing=6;spacingTop=-4;" vertex="1" parent="WIyWlLk6GJQsqaUBKTNV-1">
          <mxGeometry x="80" y="1010" width="120" height="60" as="geometry" />
        </mxCell>
        <mxCell id="F8fiGYvBZijiuDRVTaX--39" value="Set avatar URL for cell selection for each player" style="ellipse;whiteSpace=wrap;html=1;rounded=1;glass=0;strokeWidth=1;shadow=0;" vertex="1" parent="WIyWlLk6GJQsqaUBKTNV-1">
          <mxGeometry x="710" y="155" width="80" height="80" as="geometry" />
        </mxCell>
      </root>
    </mxGraphModel>
  </diagram>
</mxfile>
